<?xml version="1.0" encoding="utf-8"?>
<!-- Generator: Adobe Illustrator 21.0.0, SVG Export Plug-In . SVG Version: 6.00 Build 0)  -->
<svg version="1.1" id="Capa_1" xmlns="http://www.w3.org/2000/svg" xmlns:xlink="http://www.w3.org/1999/xlink" x="0px" y="0px"
	 viewBox="0 0 36.4 36.4" style="enable-background:new 0 0 36.4 36.4;" xml:space="preserve">
<style type="text/css">
	.st0{fill:#FFFFFF;}
	.st1{fill:#882326;}
</style>
<g>
	<g>
		<path class="st0" d="M30.2,3.9h-1.1V2.8c0-1.5-1.2-2.8-2.7-2.8c-1.5,0-2.7,1.2-2.7,2.8v1.2H21V2.8C21,1.2,19.8,0,18.4,0
			s-2.7,1.2-2.7,2.8v1.2H13V2.8C13,1.2,11.8,0,10.3,0S7.6,1.2,7.6,2.8v1.2H6.2C3.9,3.9,2,5.9,2,8.2v24c0,2.3,1.9,4.2,4.2,4.2h24
			c2.3,0,4.2-1.9,4.2-4.2v-24C34.5,5.9,32.6,3.9,30.2,3.9z M25.3,2.8c0-0.7,0.5-1.2,1.2-1.2c0.6,0,1.2,0.6,1.2,1.2v4.9
			c0,0.7-0.5,1.3-1.2,1.3c-0.6,0-1.2-0.6-1.2-1.2V2.8z M17.2,2.8c0-0.7,0.5-1.2,1.2-1.2s1.2,0.6,1.2,1.2v4.9c0,0.7-0.5,1.3-1.2,1.3
			s-1.2-0.6-1.2-1.2V2.8z M9.1,2.8c0-0.7,0.5-1.2,1.2-1.2s1.2,0.6,1.2,1.2v4.9c0,0.7-0.5,1.3-1.2,1.3S9.1,8.3,9.1,7.6V2.8z M32,32.2
			c0,1-0.8,1.8-1.8,1.8h-24c-1,0-1.8-0.8-1.8-1.8v-18H32V32.2z"/>
		<polygon class="st1" points="16.5,30.5 25.2,24.4 16.5,18.2 16.5,22.1 11.5,22.1 11.5,26.7 16.5,26.7 		"/>
	</g>
</g>
</svg>
