<?xml version="1.0" encoding="utf-8"?>
<!-- Generator: Adobe Illustrator 21.0.0, SVG Export Plug-In . SVG Version: 6.00 Build 0)  -->
<svg version="1.1" id="Слой_2" xmlns="http://www.w3.org/2000/svg" xmlns:xlink="http://www.w3.org/1999/xlink" x="0px" y="0px"
	 viewBox="0 0 1448 1450" style="enable-background:new 0 0 1448 1450;" xml:space="preserve">
<style type="text/css">
	.st0{fill:none;stroke:#2466a2;stroke-miterlimit:10;}
</style>
<g id="Icon">
	<path class="st0" d="M816.7,445.5l13.2-13.2l-30.8-42.3c-3.5-5.3,13.2-22,29.9-38.7l192.8-192.8l0.9,0.9L894.1,523l5.3,5.3
		l368-152.3c2.6-0.9,3.5,0,5.3,1.8s2.6,3.5,0,7l-188.4,188.4c-24.7,24.7-54.6,48.4-61.6,44l-33.5-21.1L976,608.4
		c3.5,3.5,7.9,2.6,46.7,40.5l76.6,76.6l12.3-12.3c-30.8-34.3-32.6-41.4-8.8-65.2l240.4-241.2c15.8-15.8,28.2-7.9,56.3,15.8
		l12.3-12.3c-16.7-14.1-41.4-33.5-70.4-62.5c-4.4-4.4-8.8-9.7-11.4-14.1L981.3,471.9L1113.4,118c-15.8-15.8-24.7-24.7-37-38.7
		c-11.4-14.1-26.4-29.9-34.3-44l-12.3,12.3c25.5,29.1,22,54.6-8.8,85.4L818.4,335.5c-31.7,31.7-47.5,34.3-81,4.4l-15,15
		c2.6,2.6,9.7,4.4,49.3,44C792,419.1,806.1,435,816.7,445.5"/>
	<path class="st0" d="M1116,1331.2L977.8,982.6l353.9,132.1c15.8-15.8,24.7-24.7,38.7-37c14.1-12.3,29.9-26.4,44-34.3l-12.3-12.3
		c-29.1,26.4-54.6,22-85.4-8.8l-202.5-202.5c-31.7-31.7-34.3-47.5-4.4-81l-15-15c-2.6,2.6-4.4,9.7-44,49.3
		c-21.1,21.1-36.1,34.3-46.7,44.9l13.2,13.2l42.3-30.8c5.3-3.5,22,13.2,38.7,29.9l192.8,192.8l-0.9,0.9L926.7,895.4l-5.3,5.3
		l152.3,368c0,2.6,0,3.5-1.8,5.3c-1.8,1.8-3.5,2.6-7,0l-187.5-189.3c-24.7-24.7-48.4-54.6-44-61.6l21.1-33.5l-13.2-13.2
		c-3.5,3.5-2.6,7.9-40.5,46.7l-76.6,76.6l12.3,12.3c34.3-30.8,41.4-32.6,65.2-8.8l241.2,241.2c15.8,15.8,7.9,28.2-15.8,56.3
		l13.2,12.3c14.1-16.7,33.5-41.4,62.5-70.4C1107.2,1338.3,1112.5,1333.9,1116,1331.2"/>
	<path class="st0" d="M631.8,1006.4l-13.2,13.2l30.8,42.3c3.5,5.3-13.2,22-29.9,38.7l-192.8,192.8l-0.9-0.9l129.4-363.6l-5.3-5.3
		l-368,152.3c-2.6,0.9-3.5,0-5.3-1.8s-2.6-3.5,0.9-7l188.4-188.4c24.7-24.7,54.6-48.4,61.6-44l33.5,21.1l13.2-12.3
		c-3.5-3.5-7.9-2.6-46.7-40.5l-76.6-76.6l-12.3,12.3c30.8,34.3,32.6,41.4,8.8,65.2l-241.2,241.2c-15.8,15.8-28.2,7.9-56.3-15.8
		l-13.2,12.3c16.7,14.1,41.4,33.5,71.3,62.5c4.4,4.4,8.8,9.7,11.4,14.1L468,979.9L336,1333.9c15.8,15.8,24.7,25.5,37,38.7
		c12.3,14.1,26.4,29.9,34.3,44l12.3-12.3c-25.5-29.1-22-54.6,8.8-85.4l202.5-202.5c31.7-31.7,47.5-34.3,81-4.4l15-15
		c-2.6-2.6-9.7-4.4-49.3-44C656.4,1031.9,642.3,1016,631.8,1006.4"/>
	<path class="st0" d="M397.6,678.8c21.1-21.1,36.1-34.3,46.7-44.9L431,620.7l-42.3,30.8c-5.3,3.5-22-13.2-38.7-29.9L157.2,428.8
		l0.9-0.9l362.7,128.5l5.3-5.3l-152.3-368c0-2.6,0-3.5,1.8-5.3c1.8-1.8,3.5-2.6,7,0L571,366.3c24.7,24.7,48.4,54.6,44,61.6
		l-21.1,33.5l13.2,13.2c3.5-3.5,2.6-7.9,40.5-45.8l76.6-76.6l-12.3-12.3c-34.3,30.8-41.4,32.6-65.2,8.8L405.5,107.4
		c-15.8-15.8-7.9-28.2,15.8-56.3L409,38.8c-14.1,16.7-33.5,41.4-62.5,70.4c-4.4,4.4-9.7,8.8-14.1,11.4l138.2,348.6L116.7,337.2
		c-15.8,15.8-24.7,24.7-38.7,37c-14.1,11.4-29.9,26.4-44,34.3l12.3,12.3c29.1-25.5,54.6-22,85.4,8.8l202.5,202.5
		c31.7,31.7,34.3,47.5,4.4,81l15,15C355.3,725.5,357.1,718.5,397.6,678.8"/>
	<path class="st0" d="M591.3,462.2v-18.5l-51.9-7.9c-6.2-1.8-6.2-24.7-6.2-48.4V114.5h0.9l165.5,347.8h7l153.2-368
		c0.9-1.8,2.6-2.6,4.4-2.6c1.8,0,4.4,0.9,4.4,5.3v266.8c0,35.2-4.4,73.1-12.3,74.8l-38.7,8.8v18.5c5.3,0,7-4.4,61.6-4.4h109.2v-17.6
		c-45.8-1.8-51.9-6.2-51.9-40.5V62.5c0-22,14.1-25.5,51.1-29.1V15.9c-21.1,1.8-52.8,6.2-94.2,6.2c-6.2,0-13.2-0.9-17.6-1.8
		L726.9,364.5L570.2,21.2c-22,0-35.2,0-53.7-1.8c-17.6-0.9-40.5-2.6-55.5-7V30c38.7,1.8,53.7,22.9,53.7,66v286.1
		c0,44.9-9.7,57.2-53.7,59.9v21.1c3.5,0,9.7-4.4,66-4.4C556.1,461.4,576.3,462.2,591.3,462.2"/>
	<path class="st0" d="M1429.4,876l-344.2-148.8l343.4-156.7c0-22,0-35.2,0.9-53.7c0.9-18.5,2.6-40.5,7-55.5h-17.6
		c-1.8,38.7-22.9,53.7-66,53.7h-286.1c-44.9,0-57.2-9.7-59.9-53.7h-21.1c0,3.5,4.4,10.6,4.4,66c0,29.1-1.8,50.2-1.8,65.2h18.5
		l7.9-51.9c1.8-6.2,24.7-6.2,48.4-6.2h272.9v0.9L988.4,700.8v7l368,153.2c1.8,1.8,2.6,2.6,2.6,4.4s-0.9,4.4-5.3,4.4H1087
		c-35.2,0-73.1-4.4-74.8-12.3l-8.8-38.7h-18.5c0,5.3,4.4,7,4.4,61.6v108.3h17.6c1.8-45.8,6.2-51.9,40.5-51.9h341.6
		c22,0,25.5,14.1,29.1,51.1h18.5c-1.8-21.1-6.2-52.8-6.2-94.2C1428.6,888.4,1429.4,881.3,1429.4,876"/>
	<path class="st0" d="M857.2,988.7v18.5l51.9,7.9c6.2,1.8,6.2,24.7,6.2,48.4v272.9h-1.8L748,988.7h-7l-153.2,368
		c-0.9,1.8-2.6,2.6-4.4,2.6c-1.8,0-4.4-0.9-4.4-5.3v-266.8c0-35.2,4.4-73.1,12.3-74.8l38.7-8.8v-18.5c-5.3,0-7,4.4-61.6,4.4H460.1
		v17.6c45.8,1.8,51.9,6.2,51.9,39.6v341.6c0,22-14.1,25.5-51.1,29.1v17.6c21.1-1.8,52.8-6.2,94.2-6.2c6.2,0,13.2,0.9,17.6,1.8
		l148.8-344.2l156.7,343.4c22,0,35.2,0,53.7,1.8c17.6,1.8,40.5,2.6,55.5,7V1421c-38.7-1.8-53.7-22.9-53.7-66v-286.1
		c0-44.9,9.7-57.2,53.7-59.9v-21.1c-3.5,0-9.7,4.4-66,4.4C892.4,990.5,872.1,988.7,857.2,988.7"/>
	<path class="st0" d="M459.2,923.6c0-29.1,1.8-50.2,1.8-65.2h-18.5l-7.9,51.9c-1.8,6.2-24.7,6.2-48.4,6.2H113.2v-1.8L461,750.1v-7
		L93,589.9c-1.8-1.8-2.6-2.6-2.6-4.4c0-1.8,0.9-4.4,5.3-4.4h266.8c34.3,0,73.1,4.4,74.8,12.3l8.8,38.7h18.5c0-5.3-4.4-7-4.4-61.6
		V461.4h-17.6c-1.8,45.8-6.2,51.9-39.6,51.9H61.3c-22,0-25.5-14.1-29.1-51.1H13.7c1.8,21.1,6.2,52.8,6.2,94.2
		c0,6.2-0.9,13.2-1.8,17.6l345.1,149.7L19.9,880.5c0,22,0,35.2-1.8,53.7c-1.8,17.6-2.6,40.5-7,55.5h17.6c1.8-38.7,22.9-53.7,66-53.7
		h286.1c44.9,0,57.2,9.7,59.9,53.7h21.1C463.6,986.1,459.2,979.9,459.2,923.6"/>
</g>
</svg>
