<?xml version="1.0" encoding="utf-8"?>
<!-- Generator: Adobe Illustrator 21.0.0, SVG Export Plug-In . SVG Version: 6.00 Build 0)  -->
<svg version="1.1" id="Слой_1" xmlns="http://www.w3.org/2000/svg" xmlns:xlink="http://www.w3.org/1999/xlink" x="0px" y="0px"
	 viewBox="0 0 997.1 170" style="enable-background:new 0 0 997.1 170;" xml:space="preserve">
<style type="text/css">
	.st0{fill:#FFFFFF;}
	.st1{enable-background:new    ;}
</style>
<g id="Слой_2">
</g>
<g id="Слой_1_1_">
	<g>
		<path class="st0" d="M95.2,54.4l1.5-1.5l-3.5-4.8c-0.4-0.6,1.5-2.5,3.4-4.4l21.9-21.9l0.1,0.1L104,63.2l0.6,0.6l41.8-17.3
			c0.3-0.1,0.4,0,0.6,0.2c0.2,0.2,0.3,0.4,0,0.8l-21.4,21.4c-2.8,2.8-6.2,5.5-7,5l-3.8-2.4l-1.5,1.4c0.4,0.4,0.9,0.3,5.3,4.6
			l8.7,8.7l1.4-1.4c-3.5-3.9-3.7-4.7-1-7.4L155,50c1.8-1.8,3.2-0.9,6.4,1.8l1.4-1.4c-1.9-1.6-4.7-3.8-8-7.1c-0.5-0.5-1-1.1-1.3-1.6
			l-39.6,15.7l15-40.2c-1.8-1.8-2.8-2.8-4.2-4.4c-1.3-1.6-3-3.4-3.9-5l-1.4,1.4c2.9,3.3,2.5,6.2-1,9.7l-23,23
			c-3.6,3.6-5.4,3.9-9.2,0.5l-1.7,1.7c0.3,0.3,1.1,0.5,5.6,5C92.4,51.4,94,53.2,95.2,54.4"/>
		<path class="st0" d="M129.3,155l-15.7-39.6l40.2,15c1.8-1.8,2.8-2.8,4.4-4.2c1.6-1.4,3.4-3,5-3.9l-1.4-1.4c-3.3,3-6.2,2.5-9.7-1
			l-23-23c-3.6-3.6-3.9-5.4-0.5-9.2l-1.7-1.7c-0.3,0.3-0.5,1.1-5,5.6c-2.4,2.4-4.1,3.9-5.3,5.1l1.5,1.5l4.8-3.5
			c0.6-0.4,2.5,1.5,4.4,3.4l21.9,21.9l-0.1,0.1l-41.3-14.6l-0.6,0.6l17.3,41.8c0,0.3,0,0.4-0.2,0.6c-0.2,0.2-0.4,0.3-0.8,0
			L102.1,127c-2.8-2.8-5.5-6.2-5-7l2.4-3.8l-1.5-1.5c-0.4,0.4-0.3,0.9-4.6,5.3l-8.7,8.7l1.4,1.4c3.9-3.5,4.7-3.7,7.4-1l27.4,27.4
			c1.8,1.8,0.9,3.2-1.8,6.4l1.5,1.4c1.6-1.9,3.8-4.7,7.1-8C128.2,155.8,128.8,155.3,129.3,155"/>
		<path class="st0" d="M74.3,118.1l-1.5,1.5l3.5,4.8c0.4,0.6-1.5,2.5-3.4,4.4L51,150.7l-0.1-0.1l14.7-41.3l-0.6-0.6L23.1,126
			c-0.3,0.1-0.4,0-0.6-0.2s-0.3-0.4,0.1-0.8L44,103.6c2.8-2.8,6.2-5.5,7-5l3.8,2.4l1.5-1.4c-0.4-0.4-0.9-0.3-5.3-4.6l-8.7-8.7
			l-1.4,1.4c3.5,3.9,3.7,4.7,1,7.4l-27.4,27.4c-1.8,1.8-3.2,0.9-6.4-1.8l-1.5,1.4c1.9,1.6,4.7,3.8,8.1,7.1c0.5,0.5,1,1.1,1.3,1.6
			L55.6,115l-15,40.2c1.8,1.8,2.8,2.9,4.2,4.4c1.4,1.6,3,3.4,3.9,5l1.4-1.4c-2.9-3.3-2.5-6.2,1-9.7l23-23c3.6-3.6,5.4-3.9,9.2-0.5
			l1.7-1.7c-0.3-0.3-1.1-0.5-5.6-5C77,121,75.4,119.2,74.3,118.1"/>
		<path class="st0" d="M47.6,80.9c2.4-2.4,4.1-3.9,5.3-5.1l-1.5-1.5l-4.8,3.5c-0.6,0.4-2.5-1.5-4.4-3.4L20.3,52.5l0.1-0.1L61.6,67
			l0.6-0.6L44.9,24.6c0-0.3,0-0.4,0.2-0.6s0.4-0.3,0.8,0l21.4,21.4c2.8,2.8,5.5,6.2,5,7l-2.4,3.8l1.5,1.5c0.4-0.4,0.3-0.9,4.6-5.2
			l8.7-8.7l-1.4-1.4c-3.9,3.5-4.7,3.7-7.4,1L48.5,15.9c-1.8-1.8-0.9-3.2,1.8-6.4l-1.4-1.4c-1.6,1.9-3.8,4.7-7.1,8
			c-0.5,0.5-1.1,1-1.6,1.3L55.9,57L15.7,42c-1.8,1.8-2.8,2.8-4.4,4.2c-1.6,1.3-3.4,3-5,3.9l1.4,1.4c3.3-2.9,6.2-2.5,9.7,1l23,23
			c3.6,3.6,3.9,5.4,0.5,9.2l1.7,1.7C42.8,86.2,43.1,85.4,47.6,80.9"/>
		<path class="st0" d="M69.6,56.3v-2.1l-5.9-0.9C63,53.1,63,50.5,63,47.7v-31h0.1L82,56.3h0.8l17.4-41.8c0.1-0.2,0.3-0.3,0.5-0.3
			s0.5,0.1,0.5,0.6v30.3c0,4-0.5,8.3-1.4,8.5l-4.4,1v2.1c0.6,0,0.8-0.5,7-0.5h12.3v-2c-5.2-0.2-5.9-0.7-5.9-4.6V10.9
			c0-2.5,1.6-2.9,5.8-3.3v-2c-2.4,0.2-6,0.7-10.7,0.7c-0.7,0-1.5-0.1-2-0.2l-17,39.1l-17.8-39c-2.5,0-4,0-6.1-0.2
			c-2-0.1-4.6-0.3-6.3-0.8v2c4.4,0.2,6.1,2.6,6.1,7.5v32.5c0,5.1-1.1,6.5-6.1,6.8v2.4c0.4,0,1.1-0.5,7.5-0.5
			C65.6,56.2,67.9,56.3,69.6,56.3"/>
		<path class="st0" d="M164.9,103.3l-39.1-16.9l39-17.8c0-2.5,0-4,0.1-6.1s0.3-4.6,0.8-6.3h-2c-0.2,4.4-2.6,6.1-7.5,6.1h-32.5
			c-5.1,0-6.5-1.1-6.8-6.1h-2.4c0,0.4,0.5,1.2,0.5,7.5c0,3.3-0.2,5.7-0.2,7.4h2.1l0.9-5.9c0.2-0.7,2.8-0.7,5.5-0.7h31v0.1
			l-39.5,18.8v0.8l41.8,17.4c0.2,0.2,0.3,0.3,0.3,0.5s-0.1,0.5-0.6,0.5H126c-4,0-8.3-0.5-8.5-1.4l-1-4.4h-2.1c0,0.6,0.5,0.8,0.5,7
			v12.3h2c0.2-5.2,0.7-5.9,4.6-5.9h38.8c2.5,0,2.9,1.6,3.3,5.8h2.1c-0.2-2.4-0.7-6-0.7-10.7C164.7,104.7,164.8,103.9,164.9,103.3"/>
		<path class="st0" d="M99.8,116.1v2.1l5.9,0.9c0.7,0.2,0.7,2.8,0.7,5.5v31h-0.2l-18.8-39.5h-0.8l-17.4,41.8
			c-0.1,0.2-0.3,0.3-0.5,0.3s-0.5-0.1-0.5-0.6v-30.3c0-4,0.5-8.3,1.4-8.5l4.4-1v-2.1c-0.6,0-0.8,0.5-7,0.5H54.7v2
			c5.2,0.2,5.9,0.7,5.9,4.5v38.8c0,2.5-1.6,2.9-5.8,3.3v2c2.4-0.2,6-0.7,10.7-0.7c0.7,0,1.5,0.1,2,0.2l16.9-39.1l17.8,39
			c2.5,0,4,0,6.1,0.2c2,0.2,4.6,0.3,6.3,0.8v-2c-4.4-0.2-6.1-2.6-6.1-7.5v-32.5c0-5.1,1.1-6.5,6.1-6.8V116c-0.4,0-1.1,0.5-7.5,0.5
			C103.9,116.3,101.5,116.1,99.8,116.1"/>
		<path class="st0" d="M54.7,108.7c0-3.3,0.2-5.7,0.2-7.4h-2.1l-0.9,5.9c-0.2,0.7-2.8,0.7-5.5,0.7h-31v-0.2L54.8,89v-0.8L13,70.8
			c-0.2-0.2-0.3-0.3-0.3-0.5s0.1-0.5,0.6-0.5h30.3c3.9,0,8.3,0.5,8.5,1.4l1,4.4h2.1c0-0.6-0.5-0.8-0.5-7V56.2h-2
			c-0.2,5.2-0.7,5.9-4.5,5.9H9.4c-2.5,0-2.9-1.6-3.3-5.8h-2c0.2,2.4,0.7,6,0.7,10.7c0,0.7-0.1,1.5-0.2,2l39.1,17l-39,17.8
			c0,2.5,0,4-0.2,6.1c-0.2,2-0.3,4.6-0.8,6.3h2c0.2-4.4,2.6-6.1,7.5-6.1h32.5c5.1,0,6.5,1.1,6.8,6.1h2.4
			C55.1,115.8,54.7,115.1,54.7,108.7"/>
	</g>
	<g class="st1">
		<path class="st0" d="M194.4,31.2l11.8,33.4L218,31.2h12.4v46h-9.5V64.7l0.9-21.7l-12.4,34.3h-6.5L190.5,43l0.9,21.7v12.6H182v-46
			h12.4V31.2z"/>
		<path class="st0" d="M265.2,67.8h-16.6l-3.2,9.5h-10.1l17.1-46h8.8l17.2,46h-10.1L265.2,67.8z M251.1,60.1h11.5l-5.8-17.2
			L251.1,60.1z"/>
		<path class="st0" d="M313.6,38.9h-14.1v38.3H290V38.9h-13.9v-7.7h37.5V38.9z"/>
		<path class="st0" d="M346.7,57.3h-18.2v12.3h21.4v7.6H319v-46h30.8v7.7h-21.3v11h18.2V57.3z"/>
		<path class="st0" d="M372.4,60.4h-7.5v16.8h-9.5v-46h17.1c5.4,0,9.6,1.2,12.6,3.6c2.9,2.4,4.4,5.8,4.4,10.3c0,3.1-0.7,5.8-2,7.8
			c-1.4,2.1-3.4,3.8-6.2,5l10,18.8v0.4H381L372.4,60.4z M364.9,52.7h7.6c2.4,0,4.2-0.6,5.5-1.8s2-2.9,2-5c0-2.2-0.6-3.9-1.8-5.1
			c-1.2-1.2-3.1-1.9-5.7-1.9h-7.6V52.7z"/>
		<path class="st0" d="M438.7,67.8h-16.6l-3.2,9.5h-10.1l17.1-46h8.8l17.2,46h-10.1L438.7,67.8z M424.7,60.1h11.5l-5.8-17.2
			L424.7,60.1z"/>
		<path class="st0" d="M491.7,61.9c-0.4,4.9-2.2,8.8-5.5,11.7c-3.3,2.9-7.6,4.3-13,4.3c-5.9,0-10.5-2-13.9-6s-5.1-9.4-5.1-16.3v-2.8
			c0-4.4,0.8-8.3,2.3-11.7s3.8-6,6.7-7.8c2.9-1.8,6.3-2.7,10.1-2.7c5.3,0,9.6,1.4,12.8,4.3c3.2,2.8,5.1,6.8,5.6,12h-9.5
			c-0.2-3-1.1-5.1-2.5-6.5c-1.4-1.3-3.6-2-6.5-2c-3.2,0-5.5,1.1-7.1,3.4c-1.6,2.3-2.4,5.8-2.4,10.5v3.5c0,5,0.8,8.6,2.3,10.9
			c1.5,2.3,3.9,3.4,7.1,3.4c2.9,0,5.1-0.7,6.6-2c1.4-1.3,2.3-3.4,2.5-6.2C482.2,61.9,491.7,61.9,491.7,61.9z"/>
		<path class="st0" d="M523.9,67.8h-16.6l-3.2,9.5H494l17.1-46h8.8l17.2,46H527L523.9,67.8z M509.9,60.1h11.5l-5.8-17.2L509.9,60.1z
			"/>
		<path class="st0" d="M541.5,77.2v-46h14.2c4,0,7.7,0.9,10.9,2.7c3.2,1.8,5.7,4.4,7.5,7.8s2.7,7.2,2.7,11.5v2.1
			c0,4.3-0.9,8.1-2.6,11.4c-1.8,3.3-4.2,5.9-7.4,7.7c-3.2,1.8-6.8,2.8-10.8,2.8C556,77.2,541.5,77.2,541.5,77.2z M551,38.9v30.7h4.6
			c3.7,0,6.5-1.2,8.5-3.6c2-2.4,3-5.9,3-10.4v-2.4c0-4.7-1-8.2-2.9-10.6c-1.9-2.4-4.8-3.6-8.5-3.6L551,38.9L551,38.9z"/>
		<path class="st0" d="M611.2,57.3H593v12.3h21.4v7.6h-30.8v-46h30.8v7.7H593v11h18.2V57.3z"/>
		<path class="st0" d="M632.3,31.2l11.8,33.4l11.8-33.4h12.4v46h-9.5V64.7l0.9-21.7l-12.4,34.3h-6.5L628.5,43l0.9,21.7v12.6h-9.5
			v-46h12.4V31.2z"/>
		<path class="st0" d="M691.6,52l9.6-20.7h10.4l-15.1,29.3v16.7h-9.6V60.6l-15.1-29.3h10.4L691.6,52z"/>
		<path class="st0" d="M748.8,65.8l10.4-34.6h10.6l-16,46h-9.9l-16-46h10.5L748.8,65.8z"/>
		<path class="st0" d="M784.2,77.2h-9.5v-46h9.5V77.2z"/>
		<path class="st0" d="M810,60.4h-7.5v16.8H793v-46h17.1c5.4,0,9.6,1.2,12.6,3.6c3,2.4,4.4,5.8,4.4,10.3c0,3.1-0.7,5.8-2,7.8
			c-1.4,2.1-3.4,3.8-6.2,5l10,18.8v0.4h-10.2L810,60.4z M802.4,52.7h7.6c2.4,0,4.2-0.6,5.5-1.8s2-2.9,2-5c0-2.2-0.6-3.9-1.8-5.1
			c-1.2-1.2-3.1-1.9-5.7-1.9h-7.6V52.7z"/>
		<path class="st0" d="M867.3,38.9h-14.1v38.3h-9.5V38.9h-13.9v-7.7h37.5V38.9z"/>
		<path class="st0" d="M907.5,31.2v30.3c0,5-1.6,9-4.7,11.9c-3.1,2.9-7.5,4.4-12.9,4.4s-9.6-1.4-12.8-4.3c-3.2-2.9-4.8-6.7-4.8-11.7
			V31.2h9.5v30.4c0,3,0.7,5.2,2.2,6.6c1.4,1.4,3.4,2.1,6,2.1c5.3,0,8-2.8,8.1-8.4V31.2H907.5z"/>
		<path class="st0" d="M940.5,67.8h-16.6l-3.2,9.5h-10.1l17.1-46h8.8l17.2,46h-10.1L940.5,67.8z M926.5,60.1H938l-5.8-17.2
			L926.5,60.1z"/>
		<path class="st0" d="M967.6,69.6h20.1v7.6h-29.6v-46h9.5V69.6z"/>
	</g>
	<g class="st1">
		<path class="st0" d="M399.8,117.4c-0.4,3.8-1.9,6.8-4.3,8.9c-2.4,2.1-5.6,3.1-9.5,3.1c-4.3,0-7.7-1.5-10.3-4.6s-3.9-7.2-3.9-12.4
			V109c0-3.4,0.6-6.4,1.8-8.9c1.2-2.6,2.9-4.5,5.1-5.9s4.8-2.1,7.7-2.1c3.9,0,7,1.1,9.3,3.2c2.3,2.2,3.7,5.1,4.1,9H395
			c-0.4-2.9-1.3-5-2.7-6.3c-1.4-1.3-3.3-2-5.8-2c-3.1,0-5.5,1.1-7.2,3.4s-2.6,5.5-2.6,9.7v3.5c0,3.9,0.8,7.1,2.5,9.4
			c1.6,2.3,4,3.5,6.9,3.5c2.7,0,4.7-0.6,6.1-1.8s2.4-3.3,2.8-6.3L399.8,117.4L399.8,117.4z"/>
		<path class="st0" d="M434.3,129h-4.8v-16.9h-18.3V129h-4.8V92.6h4.8v15.6h18.3V92.6h4.8V129z"/>
		<path class="st0" d="M463.4,119.4h-15.2l-3.4,9.5h-4.9l13.9-36.4h4.2l13.9,36.4H467L463.4,119.4z M449.6,115.5H462l-6.2-17
			L449.6,115.5z"/>
		<path class="st0" d="M490,114.2h-8.5V129h-4.8V92.6h12c4.1,0,7.2,0.9,9.5,2.8c2.2,1.9,3.3,4.6,3.3,8.1c0,2.3-0.6,4.2-1.8,5.9
			c-1.2,1.7-2.9,2.9-5.1,3.8l8.5,15.4v0.3H498L490,114.2z M481.4,110.3h7.4c2.4,0,4.3-0.6,5.7-1.9c1.4-1.2,2.1-2.9,2.1-5
			c0-2.3-0.7-4-2-5.2s-3.3-1.8-5.8-1.8h-7.3v13.9H481.4z"/>
		<path class="st0" d="M531.2,96.5h-11.7V129h-4.8V96.5H503v-3.9h28.1v3.9H531.2z"/>
		<path class="st0" d="M557.2,112.1h-15.8V125h18.3v3.9h-23.1V92.6h22.8v3.9h-18.1v11.7h15.8L557.2,112.1L557.2,112.1z"/>
		<path class="st0" d="M579,114.2h-8.5V129h-4.8V92.6h12c4.1,0,7.2,0.9,9.5,2.8c2.2,1.9,3.3,4.6,3.3,8.1c0,2.3-0.6,4.2-1.8,5.9
			c-1.2,1.7-2.9,2.9-5.1,3.8l8.5,15.4v0.3H587L579,114.2z M570.5,110.3h7.4c2.4,0,4.3-0.6,5.7-1.9c1.4-1.2,2.1-2.9,2.1-5
			c0-2.3-0.7-4-2-5.2s-3.3-1.8-5.8-1.8h-7.3v13.9H570.5z"/>
		<path class="st0" d="M620.6,112.7c-4.1-1.2-7.1-2.6-9-4.4c-1.9-1.7-2.8-3.8-2.8-6.4c0-2.9,1.1-5.2,3.4-7.1s5.3-2.8,8.9-2.8
			c2.5,0,4.7,0.5,6.7,1.4c2,1,3.5,2.3,4.5,4c1.1,1.7,1.6,3.6,1.6,5.6h-4.8c0-2.2-0.7-3.9-2.1-5.2c-1.4-1.3-3.4-1.9-5.9-1.9
			c-2.4,0-4.2,0.5-5.5,1.6c-1.3,1-2,2.5-2,4.3c0,1.5,0.6,2.7,1.9,3.8s3.4,2,6.4,2.8s5.4,1.8,7.1,2.8s3,2.2,3.8,3.6s1.2,3,1.2,4.8
			c0,2.9-1.1,5.3-3.4,7.1c-2.3,1.8-5.4,2.7-9.2,2.7c-2.5,0-4.8-0.5-7-1.4c-2.2-0.9-3.8-2.3-5-3.9c-1.2-1.7-1.8-3.6-1.8-5.7h4.8
			c0,2.2,0.8,3.9,2.4,5.2c1.6,1.3,3.8,1.9,6.5,1.9c2.5,0,4.5-0.5,5.8-1.5s2-2.4,2-4.2s-0.6-3.2-1.9-4.1
			C626.1,114.7,623.9,113.7,620.6,112.7z"/>
		<path class="st0" d="M666.9,117.4c-0.4,3.8-1.9,6.8-4.3,8.9c-2.4,2.1-5.6,3.1-9.5,3.1c-4.3,0-7.7-1.5-10.3-4.6s-3.9-7.2-3.9-12.4
			V109c0-3.4,0.6-6.4,1.8-8.9c1.2-2.6,2.9-4.5,5.1-5.9c2.2-1.4,4.8-2.1,7.7-2.1c3.9,0,7,1.1,9.3,3.2c2.3,2.2,3.7,5.1,4.1,9h-4.8
			c-0.4-2.9-1.3-5-2.7-6.3s-3.3-2-5.8-2c-3.1,0-5.5,1.1-7.2,3.4s-2.6,5.5-2.6,9.7v3.5c0,3.9,0.8,7.1,2.5,9.4c1.6,2.3,4,3.5,6.9,3.5
			c2.7,0,4.7-0.6,6.1-1.8c1.4-1.2,2.4-3.3,2.8-6.3L666.9,117.4L666.9,117.4z"/>
		<path class="st0" d="M701.4,129h-4.8v-16.9h-18.3V129h-4.8V92.6h4.8v15.6h18.3V92.6h4.8V129z"/>
		<path class="st0" d="M737.9,111.9c0,3.6-0.6,6.7-1.8,9.3c-1.2,2.7-2.9,4.7-5.1,6.1c-2.2,1.4-4.8,2.1-7.7,2.1s-5.4-0.7-7.6-2.1
			c-2.2-1.4-3.9-3.4-5.2-6s-1.9-5.6-1.9-9.1v-2.6c0-3.5,0.6-6.6,1.8-9.3c1.2-2.7,2.9-4.7,5.2-6.2c2.2-1.4,4.8-2.1,7.6-2.1
			c2.9,0,5.5,0.7,7.7,2.1s3.9,3.4,5.1,6.1c1.2,2.7,1.8,5.8,1.8,9.3v2.4H737.9z M733.1,109.6c0-4.3-0.9-7.6-2.6-9.9
			c-1.7-2.3-4.2-3.5-7.3-3.5c-3,0-5.4,1.2-7.2,3.5c-1.7,2.3-2.6,5.5-2.7,9.6v2.7c0,4.2,0.9,7.5,2.6,9.9s4.2,3.6,7.3,3.6
			s5.5-1.1,7.2-3.4s2.6-5.5,2.6-9.7v-2.8H733.1z"/>
		<path class="st0" d="M773.1,111.9c0,3.6-0.6,6.7-1.8,9.3c-1.2,2.7-2.9,4.7-5.1,6.1c-2.2,1.4-4.8,2.1-7.7,2.1s-5.4-0.7-7.6-2.1
			c-2.2-1.4-3.9-3.4-5.2-6s-1.9-5.6-1.9-9.1v-2.6c0-3.5,0.6-6.6,1.8-9.3c1.2-2.7,2.9-4.7,5.2-6.2c2.2-1.4,4.8-2.1,7.6-2.1
			c2.9,0,5.5,0.7,7.7,2.1s3.9,3.4,5.1,6.1c1.2,2.7,1.8,5.8,1.8,9.3v2.4H773.1z M768.3,109.6c0-4.3-0.9-7.6-2.6-9.9
			c-1.7-2.3-4.2-3.5-7.3-3.5c-3,0-5.4,1.2-7.2,3.5c-1.7,2.3-2.6,5.5-2.7,9.6v2.7c0,4.2,0.9,7.5,2.6,9.9s4.2,3.6,7.3,3.6
			s5.5-1.1,7.2-3.4s2.6-5.5,2.6-9.7v-2.8H768.3z"/>
		<path class="st0" d="M785.1,125h17.2v3.9h-22.1V92.6h4.8L785.1,125L785.1,125z"/>
	</g>
</g>
</svg>
