<?xml version="1.0" encoding="utf-8"?>
<!-- Generator: Adobe Illustrator 21.0.0, SVG Export Plug-In . SVG Version: 6.00 Build 0)  -->
<svg version="1.1" id="Слой_1" xmlns="http://www.w3.org/2000/svg" xmlns:xlink="http://www.w3.org/1999/xlink" x="0px" y="0px"
	 viewBox="0 0 168.5 170" style="enable-background:new 0 0 168.5 170;" xml:space="preserve">
<style type="text/css">
	.st0{fill:#882326;}
	.st1{fill:#FFFFFF;}
</style>
<g>
	<path class="st0" d="M95.2,54.4l1.5-1.5l-3.5-4.8c-0.4-0.6,1.5-2.5,3.4-4.4l21.9-21.9l0.1,0.1L104,63.2l0.6,0.6l41.8-17.3
		c0.3-0.1,0.4,0,0.6,0.2c0.2,0.2,0.3,0.4,0,0.8l-21.4,21.4c-2.8,2.8-6.2,5.5-7,5l-3.8-2.4l-1.5,1.4c0.4,0.4,0.9,0.3,5.3,4.6l8.7,8.7
		l1.4-1.4c-3.5-3.9-3.7-4.7-1-7.4L155,50c1.8-1.8,3.2-0.9,6.4,1.8l1.4-1.4c-1.9-1.6-4.7-3.8-8-7.1c-0.5-0.5-1-1.1-1.3-1.6
		l-39.6,15.7l15-40.2c-1.8-1.8-2.8-2.8-4.2-4.4c-1.3-1.6-3-3.4-3.9-5l-1.4,1.4c2.9,3.3,2.5,6.2-1,9.7l-23,23
		c-3.6,3.6-5.4,3.9-9.2,0.5l-1.7,1.7c0.3,0.3,1.1,0.5,5.6,5C92.4,51.4,94,53.2,95.2,54.4"/>
	<path class="st0" d="M129.3,155l-15.7-39.6l40.2,15c1.8-1.8,2.8-2.8,4.4-4.2c1.6-1.4,3.4-3,5-3.9l-1.4-1.4c-3.3,3-6.2,2.5-9.7-1
		l-23-23c-3.6-3.6-3.9-5.4-0.5-9.2l-1.7-1.7c-0.3,0.3-0.5,1.1-5,5.6c-2.4,2.4-4.1,3.9-5.3,5.1l1.5,1.5l4.8-3.5
		c0.6-0.4,2.5,1.5,4.4,3.4l21.9,21.9l-0.1,0.1l-41.3-14.6l-0.6,0.6l17.3,41.8c0,0.3,0,0.4-0.2,0.6c-0.2,0.2-0.4,0.3-0.8,0L102.1,127
		c-2.8-2.8-5.5-6.2-5-7l2.4-3.8l-1.5-1.5c-0.4,0.4-0.3,0.9-4.6,5.3l-8.7,8.7l1.4,1.4c3.9-3.5,4.7-3.7,7.4-1l27.4,27.4
		c1.8,1.8,0.9,3.2-1.8,6.4l1.5,1.4c1.6-1.9,3.8-4.7,7.1-8C128.2,155.8,128.8,155.3,129.3,155"/>
	<path class="st0" d="M74.3,118.1l-1.5,1.5l3.5,4.8c0.4,0.6-1.5,2.5-3.4,4.4L51,150.7l-0.1-0.1l14.7-41.3l-0.6-0.6L23.1,126
		c-0.3,0.1-0.4,0-0.6-0.2s-0.3-0.4,0.1-0.8L44,103.6c2.8-2.8,6.2-5.5,7-5l3.8,2.4l1.5-1.4c-0.4-0.4-0.9-0.3-5.3-4.6l-8.7-8.7
		l-1.4,1.4c3.5,3.9,3.7,4.7,1,7.4l-27.4,27.4c-1.8,1.8-3.2,0.9-6.4-1.8l-1.5,1.4c1.9,1.6,4.7,3.8,8.1,7.1c0.5,0.5,1,1.1,1.3,1.6
		L55.6,115l-15,40.2c1.8,1.8,2.8,2.9,4.2,4.4c1.4,1.6,3,3.4,3.9,5l1.4-1.4c-2.9-3.3-2.5-6.2,1-9.7l23-23c3.6-3.6,5.4-3.9,9.2-0.5
		l1.7-1.7c-0.3-0.3-1.1-0.5-5.6-5C77,121,75.4,119.2,74.3,118.1"/>
	<path class="st0" d="M47.6,80.9c2.4-2.4,4.1-3.9,5.3-5.1l-1.5-1.5l-4.8,3.5c-0.6,0.4-2.5-1.5-4.4-3.4L20.3,52.5l0.1-0.1L61.6,67
		l0.6-0.6L44.9,24.6c0-0.3,0-0.4,0.2-0.6s0.4-0.3,0.8,0l21.4,21.4c2.8,2.8,5.5,6.2,5,7l-2.4,3.8l1.5,1.5c0.4-0.4,0.3-0.9,4.6-5.2
		l8.7-8.7l-1.4-1.4c-3.9,3.5-4.7,3.7-7.4,1L48.5,15.9c-1.8-1.8-0.9-3.2,1.8-6.4l-1.4-1.4c-1.6,1.9-3.8,4.7-7.1,8
		c-0.5,0.5-1.1,1-1.6,1.3L55.9,57L15.7,42c-1.8,1.8-2.8,2.8-4.4,4.2c-1.6,1.3-3.4,3-5,3.9l1.4,1.4c3.3-2.9,6.2-2.5,9.7,1l23,23
		c3.6,3.6,3.9,5.4,0.5,9.2l1.7,1.7C42.8,86.2,43.1,85.4,47.6,80.9"/>
	<path class="st1" d="M69.6,56.3v-2.1l-5.9-0.9C63,53.1,63,50.5,63,47.7v-31h0.1L82,56.3h0.8l17.4-41.8c0.1-0.2,0.3-0.3,0.5-0.3
		s0.5,0.1,0.5,0.6v30.3c0,4-0.5,8.3-1.4,8.5l-4.4,1v2.1c0.6,0,0.8-0.5,7-0.5h12.3v-2c-5.2-0.2-5.9-0.7-5.9-4.6V10.9
		c0-2.5,1.6-2.9,5.8-3.3v-2c-2.4,0.2-6,0.7-10.7,0.7c-0.7,0-1.5-0.1-2-0.2l-17,39.1l-17.8-39c-2.5,0-4,0-6.1-0.2
		c-2-0.1-4.6-0.3-6.3-0.8v2c4.4,0.2,6.1,2.6,6.1,7.5v32.5c0,5.1-1.1,6.5-6.1,6.8v2.4c0.4,0,1.1-0.5,7.5-0.5
		C65.6,56.2,67.9,56.3,69.6,56.3"/>
	<path class="st1" d="M164.9,103.3l-39.1-16.9l39-17.8c0-2.5,0-4,0.1-6.1s0.3-4.6,0.8-6.3h-2c-0.2,4.4-2.6,6.1-7.5,6.1h-32.5
		c-5.1,0-6.5-1.1-6.8-6.1h-2.4c0,0.4,0.5,1.2,0.5,7.5c0,3.3-0.2,5.7-0.2,7.4h2.1l0.9-5.9c0.2-0.7,2.8-0.7,5.5-0.7h31v0.1l-39.5,18.8
		v0.8l41.8,17.4c0.2,0.2,0.3,0.3,0.3,0.5s-0.1,0.5-0.6,0.5H126c-4,0-8.3-0.5-8.5-1.4l-1-4.4h-2.1c0,0.6,0.5,0.8,0.5,7v12.3h2
		c0.2-5.2,0.7-5.9,4.6-5.9h38.8c2.5,0,2.9,1.6,3.3,5.8h2.1c-0.2-2.4-0.7-6-0.7-10.7C164.7,104.7,164.8,103.9,164.9,103.3"/>
	<path class="st1" d="M99.8,116.1v2.1l5.9,0.9c0.7,0.2,0.7,2.8,0.7,5.5v31h-0.2l-18.8-39.5h-0.8l-17.4,41.8
		c-0.1,0.2-0.3,0.3-0.5,0.3s-0.5-0.1-0.5-0.6v-30.3c0-4,0.5-8.3,1.4-8.5l4.4-1v-2.1c-0.6,0-0.8,0.5-7,0.5H54.7v2
		c5.2,0.2,5.9,0.7,5.9,4.5v38.8c0,2.5-1.6,2.9-5.8,3.3v2c2.4-0.2,6-0.7,10.7-0.7c0.7,0,1.5,0.1,2,0.2l16.9-39.1l17.8,39
		c2.5,0,4,0,6.1,0.2c2,0.2,4.6,0.3,6.3,0.8v-2c-4.4-0.2-6.1-2.6-6.1-7.5v-32.5c0-5.1,1.1-6.5,6.1-6.8V116c-0.4,0-1.1,0.5-7.5,0.5
		C103.9,116.3,101.5,116.1,99.8,116.1"/>
	<path class="st1" d="M54.7,108.7c0-3.3,0.2-5.7,0.2-7.4h-2.1l-0.9,5.9c-0.2,0.7-2.8,0.7-5.5,0.7h-31v-0.2L54.8,89v-0.8L13,70.8
		c-0.2-0.2-0.3-0.3-0.3-0.5s0.1-0.5,0.6-0.5h30.3c3.9,0,8.3,0.5,8.5,1.4l1,4.4h2.1c0-0.6-0.5-0.8-0.5-7V56.2h-2
		c-0.2,5.2-0.7,5.9-4.5,5.9H9.4c-2.5,0-2.9-1.6-3.3-5.8h-2c0.2,2.4,0.7,6,0.7,10.7c0,0.7-0.1,1.5-0.2,2l39.1,17l-39,17.8
		c0,2.5,0,4-0.2,6.1c-0.2,2-0.3,4.6-0.8,6.3h2c0.2-4.4,2.6-6.1,7.5-6.1h32.5c5.1,0,6.5,1.1,6.8,6.1h2.4
		C55.1,115.8,54.7,115.1,54.7,108.7"/>
</g>
</svg>
