<?xml version="1.0" encoding="utf-8"?>
<!-- Generator: Adobe Illustrator 21.0.0, SVG Export Plug-In . SVG Version: 6.00 Build 0)  -->
<svg version="1.1" id="Capa_1" xmlns="http://www.w3.org/2000/svg" xmlns:xlink="http://www.w3.org/1999/xlink" x="0px" y="0px"
	 viewBox="0 0 512 512" style="enable-background:new 0 0 512 512;" xml:space="preserve">
<style type="text/css">
	.st0{fill:#FFFFFF;}
	.st1{fill:#882326;}
</style>
<g>
	<g id="Page-1_37_">
		<g id="_x30_38---Internet-Cursor">
			<path id="Path_205_" class="st0" d="M291,408.3c0-0.1-0.1-0.3-0.1-0.4l-21.2-66.5c-13.7-1.8-27.4-2.9-41.2-3.2v100.1
				c23.2-0.9,46-5.6,67.7-13.7L291,408.3z"/>
			<path id="Path_204_" class="st0" d="M328,103.2c-32.3,9.5-65.8,14.6-99.5,15.1V210h118.8C346.6,173.6,340.1,137.5,328,103.2z"/>
			<path id="Path_203_" class="st0" d="M210.1,438v-99.8c-31.3,0.6-62.4,5.2-92.5,13.8C140,402,173.9,433.5,210.1,438z"/>
			<path id="Path_202_" class="st0" d="M228.4,0.2V100c31.4-0.6,62.5-5.2,92.7-13.9C299.4,37.5,266.2,4.8,228.4,0.2L228.4,0.2z"/>
			<path id="Path_201_" class="st0" d="M272.8,247.6l71,22.6c1.9-13.9,3.1-27.9,3.4-41.9H228.4v91.6c11.8,0.3,23.6,1,35.1,2.3
				l-15.8-49.7c-2.3-7.1-0.4-14.9,4.9-20.1C257.9,247.1,265.7,245.2,272.8,247.6L272.8,247.6z"/>
			<path id="Path_200_" class="st1" d="M510.6,342.4L267.1,265c-0.2-0.1-0.4-0.1-0.6-0.1c-0.4,0-0.8,0.2-1,0.5
				c-0.4,0.4-0.6,1-0.4,1.5l77.5,243.6c0.2,0.9,1,1.5,2,1.4c0.9,0.1,1.7-0.5,1.9-1.3l40.7-111.2c2.1-5.6,6.5-10,12.1-12.1
				l111.3-40.8c0.9-0.2,1.4-1.1,1.4-2C512,343.4,511.4,342.6,510.6,342.4L510.6,342.4z"/>
			<path id="Path_199_" class="st0" d="M210.1,118.3c-33.7-0.6-67.2-5.7-99.5-15.1C98.5,137.5,92,173.6,91.4,210h118.8V118.3z"/>
			<path id="Path_198_" class="st0" d="M93.6,97.4C79,92.2,64.9,85.6,51.5,77.7C20.1,114.8,2,161.4,0,210h73.1
				C73.7,171.6,80.7,133.6,93.6,97.4z"/>
			<path id="Path_197_" class="st0" d="M100.2,357.8c-12.5,4.5-24.7,10-36.2,16.6c23.5,23.4,51.9,41.2,83.2,52.1
				C127,407,111,383.6,100.2,357.8L100.2,357.8z"/>
			<path id="Path_196_" class="st0" d="M210.1,0.2c-37.7,4.6-71,37.3-92.7,86c30.2,8.6,61.3,13.3,92.7,13.8V0.2z"/>
			<path id="Path_195_" class="st0" d="M210.1,228.2H91.4c0.6,36.4,7.2,72.4,19.4,106.7c32.3-9.4,65.7-14.5,99.3-15.1V228.2z"/>
			<path id="Path_194_" class="st0" d="M438.6,210c-2-48.6-20.1-95.1-51.5-132.2c-13.4,7.9-27.4,14.5-42.1,19.8
				c12.9,36.1,19.9,74.1,20.5,112.5L438.6,210L438.6,210z"/>
			<path id="Path_193_" class="st0" d="M374.5,64c-23.6-23.6-52.3-41.5-83.8-52.4c20.4,19.5,36.6,43,47.6,69
				C350.7,76.1,362.9,70.5,374.5,64z"/>
			<path id="Path_192_" class="st0" d="M147.9,11.5C116.4,22.4,87.7,40.3,64.1,64c11.6,6.6,23.8,12.1,36.3,16.6
				C111.4,54.5,127.6,31,147.9,11.5L147.9,11.5z"/>
			<path id="Path_191_" class="st0" d="M438.6,228.2h-73.2c-0.4,15.9-1.7,31.8-4.1,47.5l63.5,20.2
				C433,274.3,437.7,251.4,438.6,228.2z"/>
			<path id="Path_190_" class="st0" d="M93.5,340.7c-12.8-36.2-19.7-74.2-20.3-112.5h-73c2,48.6,20,95.1,51.4,132.2
				C64.9,352.6,78.9,346,93.5,340.7z"/>
		</g>
	</g>
</g>
</svg>
