<?xml version="1.0" encoding="utf-8"?>
<!-- Generator: Adobe Illustrator 21.0.0, SVG Export Plug-In . SVG Version: 6.00 Build 0)  -->
<svg version="1.1" id="Слой_1" xmlns="http://www.w3.org/2000/svg" xmlns:xlink="http://www.w3.org/1999/xlink" x="0px" y="0px"
	 viewBox="0 0 110 110" style="enable-background:new 0 0 110 110;" xml:space="preserve">
<style type="text/css">
	.st0{fill:#882326;}
	.st1{fill:#2666A9;}
	.st2{fill:#FFFFFF;}
</style>
<g>
	<path class="st0" d="M13.7,54.8c-0.2,0.6-0.5,1.1-0.8,1.4l-1.4-0.8c0.3-0.3,0.5-0.7,0.7-1.2s0.3-1,0.4-1.5c0-0.5,0-1-0.1-1.2
		c-0.1-0.3-0.3-0.4-0.6-0.5c-0.2,0-0.4,0-0.5,0.2c-0.1,0.1-0.3,0.3-0.4,0.6c-0.1,0.2-0.2,0.6-0.4,1c-0.2,0.6-0.4,1.1-0.6,1.5
		c-0.2,0.4-0.5,0.7-0.8,1c-0.4,0.3-0.8,0.4-1.4,0.3c-0.5,0-0.9-0.2-1.3-0.5c-0.4-0.3-0.6-0.7-0.8-1.3c-0.2-0.6-0.2-1.2-0.2-2
		c0-0.5,0.2-1,0.3-1.5C6,49.8,6.2,49.4,6.5,49l1.4,0.7C7.4,50.5,7.1,51.2,7,52c0,0.5,0,1,0.2,1.2c0.2,0.3,0.4,0.4,0.7,0.5
		c0.3,0,0.5-0.1,0.7-0.4s0.3-0.7,0.5-1.3s0.4-1.1,0.6-1.5c0.2-0.4,0.5-0.7,0.8-1c0.4-0.3,0.8-0.4,1.4-0.3c0.5,0,0.9,0.2,1.3,0.5
		s0.6,0.7,0.8,1.3s0.2,1.2,0.2,2C14.1,53.6,13.9,54.2,13.7,54.8z"/>
	<path class="st0" d="M15.2,44.4c-0.6,0.5-1.2,0.9-2,1c-0.8,0.2-1.5,0.1-2.3-0.2S9.4,44.5,9,43.9c-0.5-0.6-0.8-1.3-0.9-2.1
		c-0.1-0.8,0-1.6,0.2-2.4c0.2-0.7,0.6-1.3,1-1.7s0.9-0.8,1.5-1l0.7,1.6c-0.8,0.3-1.4,0.9-1.6,1.7c-0.2,0.5-0.2,1-0.1,1.4
		c0.1,0.5,0.3,0.9,0.6,1.2c0.3,0.4,0.7,0.6,1.2,0.8s1,0.2,1.4,0.1c0.5-0.1,0.9-0.3,1.2-0.6c0.4-0.3,0.6-0.7,0.8-1.2
		c0.3-0.8,0.2-1.6-0.2-2.3l1.5-0.8c0.3,0.5,0.5,1.1,0.6,1.8c0,0.6-0.1,1.3-0.3,2C16.2,43.2,15.8,43.9,15.2,44.4z"/>
	<path class="st0" d="M22,31.8h-2.8l-0.1,0.1l-1,1.4l1.9,1.3l-1,1.7l-6.9-4.7l2.1-3c0.4-0.6,0.9-1.1,1.4-1.4s1-0.5,1.6-0.4
		c0.5,0,1.1,0.2,1.6,0.5c0.5,0.4,0.9,0.8,1.1,1.3s0.2,1,0.1,1.6h3.3L22,31.8z M16.5,28.6c-0.4,0.1-0.7,0.4-1.1,0.9l-0.9,1.3l2.4,1.7
		l0.9-1.3c0.3-0.5,0.5-0.9,0.4-1.3c0-0.4-0.3-0.7-0.6-1C17.2,28.6,16.8,28.5,16.5,28.6z"/>
	<path class="st0" d="M26.5,26.3c-0.8,0.2-1.5,0.1-2.3-0.1c-0.7-0.3-1.4-0.7-1.9-1.3c-0.5-0.6-0.9-1.3-1-2.1s0-1.5,0.3-2.2
		s0.8-1.4,1.4-1.9c0.7-0.6,1.4-0.9,2.2-1.1c0.8-0.2,1.5-0.1,2.3,0.1c0.7,0.2,1.4,0.7,1.9,1.3s0.9,1.3,1,2.1c0.1,0.8,0,1.5-0.3,2.2
		s-0.8,1.4-1.4,1.9C28,25.8,27.2,26.1,26.5,26.3z M28.4,22.8c0.2-0.4,0.2-0.9,0.1-1.3c-0.1-0.5-0.3-0.9-0.6-1.3
		c-0.3-0.4-0.7-0.7-1.2-0.8c-0.4-0.2-0.9-0.2-1.3-0.1s-0.9,0.3-1.2,0.6s-0.7,0.7-0.8,1.1c-0.2,0.4-0.2,0.9-0.1,1.3
		c0.1,0.5,0.3,0.9,0.6,1.3c0.3,0.4,0.7,0.7,1.2,0.8s0.9,0.2,1.3,0.1s0.9-0.3,1.3-0.6C28,23.6,28.2,23.2,28.4,22.8z"/>
	<path class="st0" d="M31.5,12.9l1.8-0.8l2.9,6.2l3.8-1.8l0.7,1.4l-5.6,2.6L31.5,12.9z"/>
	<path class="st0" d="M41.7,8.8l1.9-0.4l1.5,6.7l4.1-0.9l0.3,1.5l-6,1.3L41.7,8.8z"/>
	<path class="st0" d="M60.8,8.9l-2.7-0.4L58.3,7l7.3,1l-0.2,1.6l-2.7-0.4L61.8,16l-1.9-0.3L60.8,8.9z"/>
	<path class="st0" d="M69,17.2c-0.5-0.6-0.8-1.3-0.9-2.1s0-1.5,0.3-2.3s0.8-1.4,1.4-1.8c0.6-0.5,1.3-0.7,2.1-0.8s1.6,0,2.4,0.4
		c0.8,0.3,1.5,0.8,2,1.4c0.5,0.6,0.8,1.3,0.9,2.1c0.1,0.8,0,1.5-0.3,2.3s-0.8,1.4-1.4,1.8c-0.6,0.5-1.3,0.7-2.1,0.8s-1.6,0-2.4-0.4
		C70.1,18.3,69.5,17.8,69,17.2z M73,17.3c0.5-0.1,0.9-0.2,1.2-0.5c0.4-0.3,0.6-0.7,0.8-1.2c0.2-0.5,0.3-1,0.2-1.4S75,13.3,74.7,13
		c-0.3-0.4-0.7-0.6-1.1-0.8c-0.5-0.2-0.9-0.3-1.4-0.2s-0.9,0.2-1.2,0.5s-0.6,0.7-0.8,1.2c-0.2,0.5-0.3,1-0.2,1.4
		c0.1,0.5,0.2,0.9,0.5,1.2c0.3,0.4,0.7,0.6,1.1,0.8C72,17.3,72.5,17.3,73,17.3z"/>
	<path class="st0" d="M88.2,28.9L87.1,30l-4.6-4.6l5.9-5.9L93,24l-1.1,1.1L88.8,22l-1.3,1.3l2.8,2.8l-1.1,1.1l-2.8-2.8L85,25.7
		L88.2,28.9z"/>
	<path class="st0" d="M91.9,37.2l1.5-3.2l-3.5-0.2l-1.1-1.9l5.3,0.5l2-4.7l1.1,1.9l-1.3,3.1l3.3,0.2l1.1,1.8l-5-0.4l-2.1,4.9
		L91.9,37.2z"/>
	<path class="st0" d="M103.3,44.7c-0.1,0.6-0.3,1.1-0.7,1.5c-0.4,0.4-0.8,0.7-1.4,0.9s-1.1,0.2-1.7,0s-1-0.5-1.4-0.9
		c-0.4-0.5-0.7-1-0.9-1.8l-0.5-1.6l-2.2,0.7l-0.6-1.9l8.1-2.4l1,3.5C103.4,43.5,103.4,44.1,103.3,44.7z M99.5,45.1
		c0.3,0.2,0.7,0.3,1.2,0.1c0.5-0.1,0.8-0.4,0.9-0.7c0.2-0.4,0.2-0.8,0-1.4l-0.4-1.5l-2.8,0.8l0.4,1.5C99,44.5,99.2,44.9,99.5,45.1z"
		/>
	<path class="st0" d="M104.9,51.6l0.1,1.9l-6.8,0.3l0.2,4.2l-1.6,0.1L96.5,52L104.9,51.6z"/>
	<path class="st0" d="M96.7,62.7c0.5-0.6,1.1-1,1.9-1.3s1.5-0.3,2.3-0.1s1.5,0.5,2.1,1s1,1.2,1.2,1.9c0.2,0.8,0.2,1.6,0.1,2.4
		c-0.2,0.9-0.5,1.6-1,2.2s-1.1,1-1.9,1.3c-0.7,0.3-1.5,0.3-2.3,0.1c-0.8-0.2-1.5-0.5-2.1-1s-1-1.2-1.2-1.9c-0.2-0.8-0.2-1.6-0.1-2.4
		C95.9,64.1,96.2,63.3,96.7,62.7z M97.4,66.6c0.1,0.4,0.4,0.8,0.7,1.1c0.4,0.3,0.8,0.5,1.3,0.6s1,0.1,1.4,0s0.8-0.4,1.1-0.7
		c0.3-0.3,0.5-0.8,0.6-1.2c0.1-0.5,0.1-0.9-0.1-1.4c-0.1-0.4-0.4-0.8-0.7-1.1c-0.4-0.3-0.8-0.5-1.3-0.6s-1-0.1-1.4,0
		s-0.8,0.4-1.1,0.7c-0.3,0.3-0.5,0.8-0.6,1.2C97.2,65.7,97.2,66.2,97.4,66.6z"/>
	<path class="st0" d="M91.1,77.3l2.8-0.3v-0.1l0.8-1.5l-2.1-1.1l0.9-1.7l7.4,3.9l-1.7,3.2c-0.3,0.7-0.8,1.2-1.2,1.5
		c-0.5,0.4-1,0.6-1.5,0.6s-1.1-0.1-1.6-0.4c-0.6-0.3-1-0.7-1.2-1.2s-0.4-1-0.3-1.6L90.1,79L91.1,77.3z M97,79.8c0.4-0.2,0.7-0.5,1-1
		l0.7-1.4L96.1,76l-0.7,1.4c-0.3,0.5-0.4,1-0.3,1.4s0.3,0.7,0.7,0.9C96.2,80,96.6,80,97,79.8z"/>
	<path class="st0" d="M84.9,87.6l-1.2-1l4.4-4.8l6.2,5.6L90,92.1l-1.2-1l3-3.3l-1.3-1.2l-2.6,2.9l-1.1-1l2.6-2.9L88,84.3L84.9,87.6z
		"/>
</g>
</svg>
