<?xml version="1.0" encoding="utf-8"?>
<!-- Generator: Adobe Illustrator 21.0.0, SVG Export Plug-In . SVG Version: 6.00 Build 0)  -->
<svg version="1.1" id="Слой_1" xmlns="http://www.w3.org/2000/svg" xmlns:xlink="http://www.w3.org/1999/xlink" x="0px" y="0px"
	 viewBox="0 0 2526 191" style="enable-background:new 0 0 2526 191;" xml:space="preserve">
<style type="text/css">
	.st0{fill:#882326;}
	.st1{fill:#FFFFFF;}
	.st2{fill:none;stroke:#FFFFFF;stroke-miterlimit:10;}
</style>
<g id="Слой_2">
	<g>
		<path class="st0" d="M104,59.8l1.5-1.5l-3.5-4.8c-0.4-0.6,1.5-2.5,3.4-4.4l21.9-21.9l0.1,0.1l-14.6,41.3l0.6,0.6l41.8-17.3
			c0.3-0.1,0.4,0,0.6,0.2c0.2,0.2,0.3,0.4,0,0.8l-21.4,21.4c-2.8,2.8-6.2,5.5-7,5l-3.8-2.4l-1.5,1.4c0.4,0.4,0.9,0.3,5.3,4.6
			l8.7,8.7l1.4-1.4c-3.5-3.9-3.7-4.7-1-7.4l27.3-27.4c1.8-1.8,3.2-0.9,6.4,1.8l1.4-1.4c-1.9-1.6-4.7-3.8-8-7.1
			c-0.5-0.5-1-1.1-1.3-1.6l-39.6,15.7l15-40.2c-1.8-1.8-2.8-2.8-4.2-4.4c-1.3-1.6-3-3.4-3.9-5l-1.4,1.4c2.9,3.3,2.5,6.2-1,9.7
			l-23,23c-3.6,3.6-5.4,3.9-9.2,0.5l-1.7,1.7c0.3,0.3,1.1,0.5,5.6,5C101.2,56.8,102.8,58.6,104,59.8"/>
		<path class="st0" d="M138.1,160.4l-15.7-39.6l40.2,15c1.8-1.8,2.8-2.8,4.4-4.2c1.6-1.4,3.4-3,5-3.9l-1.4-1.4c-3.3,3-6.2,2.5-9.7-1
			l-23-23c-3.6-3.6-3.9-5.4-0.5-9.2l-1.7-1.7c-0.3,0.3-0.5,1.1-5,5.6c-2.4,2.4-4.1,3.9-5.3,5.1l1.5,1.5l4.8-3.5
			c0.6-0.4,2.5,1.5,4.4,3.4l21.9,21.9l-0.1,0.1l-41.3-14.6l-0.6,0.6l17.3,41.8c0,0.3,0,0.4-0.2,0.6s-0.4,0.3-0.8,0l-21.4-21.5
			c-2.8-2.8-5.5-6.2-5-7l2.4-3.8l-1.5-1.5c-0.4,0.4-0.3,0.9-4.6,5.3l-8.7,8.7l1.4,1.4c3.9-3.5,4.7-3.7,7.4-1l27.4,27.4
			c1.8,1.8,0.9,3.2-1.8,6.4l1.5,1.4c1.6-1.9,3.8-4.7,7.1-8C137,161.2,137.6,160.7,138.1,160.4"/>
		<path class="st0" d="M83.1,123.5l-1.5,1.5l3.5,4.8c0.4,0.6-1.5,2.5-3.4,4.4l-21.9,21.9l-0.1-0.1l14.7-41.3l-0.6-0.6l-41.9,17.3
			c-0.3,0.1-0.4,0-0.6-0.2c-0.2-0.2-0.3-0.4,0.1-0.8L52.8,109c2.8-2.8,6.2-5.5,7-5l3.8,2.4l1.5-1.4c-0.4-0.4-0.9-0.3-5.3-4.6
			l-8.7-8.7l-1.4,1.4c3.5,3.9,3.7,4.7,1,7.4l-27.4,27.4c-1.8,1.8-3.2,0.9-6.4-1.8l-1.5,1.4c1.9,1.6,4.7,3.8,8.1,7.1
			c0.5,0.5,1,1.1,1.3,1.6l39.6-15.8l-15,40.2c1.8,1.8,2.8,2.9,4.2,4.4c1.4,1.6,3,3.4,3.9,5l1.4-1.4c-2.9-3.3-2.5-6.2,1-9.7l23-23
			c3.6-3.6,5.4-3.9,9.2-0.5l1.7-1.7c-0.3-0.3-1.1-0.5-5.6-5C85.8,126.4,84.2,124.6,83.1,123.5"/>
		<path class="st0" d="M56.4,86.3c2.4-2.4,4.1-3.9,5.3-5.1l-1.5-1.5l-4.8,3.5c-0.6,0.4-2.5-1.5-4.4-3.4L29.1,57.9l0.1-0.1l41.2,14.6
			l0.6-0.6L53.7,30c0-0.3,0-0.4,0.2-0.6s0.4-0.3,0.8,0l21.4,21.4c2.8,2.8,5.5,6.2,5,7l-2.4,3.8l1.5,1.5c0.4-0.4,0.3-0.9,4.6-5.2
			l8.7-8.7l-1.4-1.4c-3.9,3.5-4.7,3.7-7.4,1L57.3,21.3c-1.8-1.8-0.9-3.2,1.8-6.4l-1.4-1.4c-1.6,1.9-3.8,4.7-7.1,8
			c-0.5,0.5-1.1,1-1.6,1.3l15.7,39.6l-40.2-15c-1.8,1.8-2.8,2.8-4.4,4.2c-1.6,1.3-3.4,3-5,3.9l1.4,1.4c3.3-2.9,6.2-2.5,9.7,1l23,23
			c3.6,3.6,3.9,5.4,0.5,9.2l1.7,1.7C51.6,91.6,51.9,90.8,56.4,86.3"/>
		<path class="st1" d="M78.4,61.7v-2.1l-5.9-0.9c-0.7-0.2-0.7-2.8-0.7-5.6v-31h0.1l18.9,39.6h0.8L109,19.9c0.1-0.2,0.3-0.3,0.5-0.3
			s0.5,0.1,0.5,0.6v30.3c0,4-0.5,8.3-1.4,8.5l-4.4,1v2.1c0.6,0,0.8-0.5,7-0.5h12.3v-2c-5.2-0.2-5.9-0.7-5.9-4.6V16.3
			c0-2.5,1.6-2.9,5.8-3.3v-2c-2.4,0.2-6,0.7-10.7,0.7c-0.7,0-1.5-0.1-2-0.2l-17,39.1l-17.8-39c-2.5,0-4,0-6.1-0.2
			c-2-0.1-4.6-0.3-6.3-0.8v2c4.4,0.2,6.1,2.6,6.1,7.5v32.5c0,5.1-1.1,6.5-6.1,6.8v2.4c0.4,0,1.1-0.5,7.5-0.5
			C74.4,61.6,76.7,61.7,78.4,61.7"/>
		<path class="st1" d="M173.7,108.7l-39.1-16.9l39-17.8c0-2.5,0-4,0.1-6.1s0.3-4.6,0.8-6.3h-2c-0.2,4.4-2.6,6.1-7.5,6.1h-32.5
			c-5.1,0-6.5-1.1-6.8-6.1h-2.4c0,0.4,0.5,1.2,0.5,7.5c0,3.3-0.2,5.7-0.2,7.4h2.1l0.9-5.9c0.2-0.7,2.8-0.7,5.5-0.7h31V70l-39.5,18.8
			v0.8l41.8,17.4c0.2,0.2,0.3,0.3,0.3,0.5s-0.1,0.5-0.6,0.5h-30.3c-4,0-8.3-0.5-8.5-1.4l-1-4.4h-2.1c0,0.6,0.5,0.8,0.5,7v12.3h2
			c0.2-5.2,0.7-5.9,4.6-5.9h38.8c2.5,0,2.9,1.6,3.3,5.8h2.1c-0.2-2.4-0.7-6-0.7-10.7C173.5,110.1,173.6,109.3,173.7,108.7"/>
		<path class="st1" d="M108.6,121.5v2.1l5.9,0.9c0.7,0.2,0.7,2.8,0.7,5.5v31H115l-18.8-39.5h-0.8L78,163.3c-0.1,0.2-0.3,0.3-0.5,0.3
			S77,163.5,77,163v-30.3c0-4,0.5-8.3,1.4-8.5l4.4-1v-2.1c-0.6,0-0.8,0.5-7,0.5H63.5v2c5.2,0.2,5.9,0.7,5.9,4.5v38.8
			c0,2.5-1.6,2.9-5.8,3.3v2c2.4-0.2,6-0.7,10.7-0.7c0.7,0,1.5,0.1,2,0.2l16.9-39.1l17.8,39c2.5,0,4,0,6.1,0.2c2,0.2,4.6,0.3,6.3,0.8
			v-2c-4.4-0.2-6.1-2.6-6.1-7.5v-32.5c0-5.1,1.1-6.5,6.1-6.8v-2.4c-0.4,0-1.1,0.5-7.5,0.5C112.7,121.7,110.3,121.5,108.6,121.5"/>
		<path class="st1" d="M63.5,114.1c0-3.3,0.2-5.7,0.2-7.4h-2.1l-0.9,5.9c-0.2,0.7-2.8,0.7-5.5,0.7h-31v-0.2l39.4-18.7v-0.8
			L21.8,76.2c-0.2-0.2-0.3-0.3-0.3-0.5s0.1-0.5,0.6-0.5h30.3c3.9,0,8.3,0.5,8.5,1.4l1,4.4H64c0-0.6-0.5-0.8-0.5-7V61.6h-2
			c-0.2,5.2-0.7,5.9-4.5,5.9H18.2c-2.5,0-2.9-1.6-3.3-5.8h-2c0.2,2.4,0.7,6,0.7,10.7c0,0.7-0.1,1.5-0.2,2l39.1,17l-39,17.8
			c0,2.5,0,4-0.2,6.1c-0.2,2-0.3,4.6-0.8,6.3h2c0.2-4.4,2.6-6.1,7.5-6.1h32.5c5.1,0,6.5,1.1,6.8,6.1h2.4
			C63.9,121.2,63.5,120.5,63.5,114.1"/>
	</g>
</g>
<g>
	
		<image style="overflow:visible;opacity:0.75;" width="2376" height="193" xlink:href="93E359900038E0B.png"  transform="matrix(1 0 0 1 164 2)">
	</image>
	<g>
		<g>
			<path class="st2" d="M222.6,27.6l32.9,92.8l32.7-92.8h34.6v128h-26.5v-35l2.6-60.4l-34.5,95.4h-18.1l-34.5-95.3l2.6,60.3v35
				h-26.4v-128H222.6z"/>
			<path class="st2" d="M423.3,129.2H377l-8.8,26.4h-28l47.6-128h24.4l47.9,128h-28L423.3,129.2z M384.1,107.9h32L400.1,60
				L384.1,107.9z"/>
			<path class="st2" d="M561.5,49h-39.2v106.6h-26.4V49h-38.7V27.6h104.2V49z"/>
			<path class="st2" d="M657.1,100.1h-50.6v34.3h59.4v21.2h-85.8v-128h85.6V49h-59.2v30.5h50.6V100.1z"/>
			<path class="st2" d="M732.4,108.7h-21v46.8H685v-128h47.5c15.1,0,26.8,3.4,35,10.1c8.2,6.7,12.3,16.3,12.3,28.6
				c0,8.7-1.9,16-5.7,21.8c-3.8,5.8-9.5,10.5-17.2,13.9l27.7,52.3v1.2h-28.3L732.4,108.7z M711.3,87.4h21.3c6.6,0,11.7-1.7,15.4-5.1
				c3.6-3.4,5.4-8,5.4-13.9c0-6-1.7-10.8-5.1-14.2c-3.4-3.5-8.7-5.2-15.8-5.2h-21.2V87.4z"/>
			<path class="st2" d="M924.1,129.2h-46.2l-8.8,26.4h-28l47.6-128h24.4l47.9,128h-28L924.1,129.2z M885,107.9h32L900.9,60
				L885,107.9z"/>
			<path class="st2" d="M1075.2,113c-1,13.8-6.1,24.6-15.2,32.5c-9.2,7.9-21.3,11.9-36.3,11.9c-16.4,0-29.3-5.5-38.7-16.6
				c-9.4-11-14.1-26.2-14.1-45.5v-7.8c0-12.3,2.2-23.1,6.5-32.5c4.3-9.4,10.5-16.6,18.6-21.6c8.1-5,17.4-7.5,28.1-7.5
				c14.8,0,26.7,4,35.7,11.9c9,7.9,14.2,19,15.6,33.3H1049c-0.6-8.3-2.9-14.3-6.9-18c-4-3.7-10-5.6-18.1-5.6
				c-8.8,0-15.4,3.2-19.7,9.4c-4.4,6.3-6.6,16.1-6.7,29.3v9.7c0,13.8,2.1,23.9,6.3,30.3c4.2,6.4,10.8,9.6,19.8,9.6
				c8.1,0,14.2-1.9,18.2-5.6c4-3.7,6.3-9.5,6.9-17.3H1075.2z"/>
			<path class="st2" d="M1168.4,129.2h-46.2l-8.8,26.4h-28l47.6-128h24.4l47.9,128h-28L1168.4,129.2z M1129.3,107.9h32L1145.2,60
				L1129.3,107.9z"/>
			<path class="st2" d="M1220.8,155.6v-128h39.4c11.2,0,21.3,2.5,30.2,7.6c8.9,5.1,15.8,12.3,20.8,21.6c5,9.3,7.5,20,7.5,31.9v5.9
				c0,11.9-2.4,22.5-7.3,31.7c-4.9,9.3-11.8,16.4-20.7,21.5c-8.9,5.1-19,7.7-30.1,7.7H1220.8z M1247.2,49v85.4h12.7
				c10.3,0,18.2-3.4,23.6-10.1c5.4-6.7,8.2-16.4,8.3-28.9v-6.8c0-13-2.7-22.9-8.1-29.6c-5.4-6.7-13.3-10.1-23.6-10.1H1247.2z"/>
			<path class="st2" d="M1418.4,100.1h-50.6v34.3h59.4v21.2h-85.8v-128h85.6V49h-59.2v30.5h50.6V100.1z"/>
			<path class="st2" d="M1480.7,27.6l32.9,92.8l32.7-92.8h34.6v128h-26.5v-35l2.6-60.4l-34.5,95.4h-18.1L1470,60.3l2.6,60.3v35
				h-26.4v-128H1480.7z"/>
			<path class="st2" d="M1649.2,85.3l26.6-57.7h28.8l-42,81.6v46.4h-26.8v-46.4l-42-81.6h28.9L1649.2,85.3z"/>
			<path class="st2" d="M1815.7,123.9l29-96.2h29.4l-44.6,128h-27.5l-44.4-128h29.3L1815.7,123.9z"/>
			<path class="st2" d="M1917.7,155.6h-26.4v-128h26.4V155.6z"/>
			<path class="st2" d="M1993.1,108.7h-21v46.8h-26.4v-128h47.5c15.1,0,26.8,3.4,35,10.1c8.2,6.7,12.3,16.3,12.3,28.6
				c0,8.7-1.9,16-5.7,21.8c-3.8,5.8-9.5,10.5-17.2,13.9l27.7,52.3v1.2h-28.3L1993.1,108.7z M1972.1,87.4h21.3
				c6.6,0,11.7-1.7,15.4-5.1c3.6-3.4,5.4-8,5.4-13.9c0-6-1.7-10.8-5.1-14.2c-3.4-3.5-8.7-5.2-15.8-5.2h-21.2V87.4z"/>
			<path class="st2" d="M2156.1,49h-39.2v106.6h-26.4V49h-38.7V27.6h104.2V49z"/>
			<path class="st2" d="M2271.6,27.6v84.3c0,14-4.4,25.1-13.1,33.2c-8.8,8.1-20.7,12.2-35.9,12.2c-14.9,0-26.8-4-35.6-11.9
				s-13.3-18.8-13.4-32.6V27.6h26.4v84.5c0,8.4,2,14.5,6,18.3c4,3.8,9.6,5.8,16.7,5.8c14.8,0,22.4-7.8,22.6-23.4V27.6H2271.6z"/>
			<path class="st2" d="M2367.2,129.2h-46.2l-8.8,26.4h-28l47.6-128h24.4l47.9,128h-28L2367.2,129.2z M2328,107.9h32L2344,60
				L2328,107.9z"/>
			<path class="st2" d="M2446,134.4h56v21.2h-82.4v-128h26.4V134.4z"/>
		</g>
	</g>
</g>
</svg>
