<?xml version="1.0" encoding="utf-8"?>
<!-- Generator: Adobe Illustrator 21.0.0, SVG Export Plug-In . SVG Version: 6.00 Build 0)  -->
<svg version="1.1" id="Слой_1" xmlns="http://www.w3.org/2000/svg" xmlns:xlink="http://www.w3.org/1999/xlink" x="0px" y="0px"
	 viewBox="0 0 1785.3 136.7" style="enable-background:new 0 0 1785.3 136.7;" xml:space="preserve">
<style type="text/css">
	.st0{fill:none;stroke:#FFFFFF;stroke-miterlimit:10;}
</style>
<g>
	
		<image style="overflow:visible;opacity:0.75;enable-background:new    ;" width="2376" height="193" xlink:href="93E359900038E0B.png"  transform="matrix(0.7508 0 0 0.7082 1.2984 0)">
	</image>
	<g>
		<g>
			<path class="st0" d="M45.3,18.1L70,83.8l24.6-65.7h26v90.6h-19.9V84l2-42.8l-25.9,67.6H63.1L37.2,41.3l2,42.7v24.8H19.3V18.1
				C19.3,18.1,45.3,18.1,45.3,18.1z"/>
			<path class="st0" d="M196,90.1h-34.8l-6.6,18.7h-21l35.7-90.6h18.3l36,90.6h-21L196,90.1z M166.6,75h24l-12-33.9L166.6,75z"/>
			<path class="st0" d="M299.8,33.3h-29.4v75.5h-19.8V33.3h-29.1V18.1h78.2L299.8,33.3L299.8,33.3z"/>
			<path class="st0" d="M371.5,69.5h-38v24.3h44.6v15h-64.4V18.1H378v15.2h-44.4v21.6h38V69.5z"/>
			<path class="st0" d="M428.1,75.6h-15.8v33.1h-19.8V18.1h35.7c11.3,0,20.1,2.4,26.3,7.2s9.2,11.5,9.2,20.3
				c0,6.2-1.4,11.3-4.3,15.4s-7.1,7.4-12.9,9.8l20.8,37v0.8H446L428.1,75.6z M412.2,60.5h16c5,0,8.8-1.2,11.6-3.6
				c2.7-2.4,4.1-5.7,4.1-9.8c0-4.2-1.3-7.6-3.8-10.1c-2.6-2.5-6.5-3.7-11.9-3.7h-15.9L412.2,60.5L412.2,60.5z"/>
			<path class="st0" d="M572,90.1h-34.7l-6.6,18.7h-21l35.7-90.6h18.3l36,90.6h-21L572,90.1z M542.7,75h24l-12.1-33.9L542.7,75z"/>
			<path class="st0" d="M685.5,78.6c-0.8,9.8-4.6,17.4-11.4,23c-6.9,5.6-16,8.4-27.3,8.4c-12.3,0-22-3.9-29.1-11.8
				c-7.1-7.8-10.6-18.6-10.6-32.2v-5.5c0-8.7,1.7-16.4,4.9-23c3.2-6.7,7.9-11.8,14-15.3s13.1-5.3,21.1-5.3c11.1,0,20,2.8,26.8,8.4
				s10.7,13.5,11.7,23.6h-19.8c-0.5-5.9-2.2-10.1-5.2-12.7s-7.5-4-13.6-4c-6.6,0-11.6,2.3-14.8,6.7c-3.3,4.5-5,11.4-5,20.7v6.9
				c0,9.8,1.6,16.9,4.7,21.5c3.2,4.5,8.1,6.8,14.9,6.8c6.1,0,10.7-1.3,13.7-4c3-2.6,4.7-6.7,5.2-12.3L685.5,78.6L685.5,78.6z"/>
			<path class="st0" d="M755.4,90.1h-34.7l-6.6,18.7h-21l35.7-90.6h18.3l36,90.6h-21L755.4,90.1z M726.1,75h24L738,41.1L726.1,75z"
				/>
			<path class="st0" d="M794.8,108.8V18.1h29.6c8.4,0,16,1.8,22.7,5.4c6.7,3.6,11.9,8.7,15.6,15.3s5.6,14.2,5.6,22.6v4.2
				c0,8.4-1.8,15.9-5.5,22.4c-3.7,6.6-8.9,11.6-15.5,15.2c-6.7,3.6-14.3,5.5-22.6,5.5L794.8,108.8L794.8,108.8z M814.6,33.3v60.5
				h9.5c7.7,0,13.7-2.4,17.7-7.2c4.1-4.7,6.2-11.6,6.2-20.5v-4.8c0-9.2-2-16.2-6.1-21s-10-7.2-17.7-7.2L814.6,33.3L814.6,33.3z"/>
			<path class="st0" d="M943.2,69.5h-38v24.3h44.6v15h-64.4V18.1h64.3v15.2h-44.4v21.6h38V69.5z"/>
			<path class="st0" d="M989.9,18.1l24.7,65.7l24.6-65.7h26v90.6h-19.9V84l2-42.8l-25.9,67.6h-13.6l-25.8-67.5l2,42.7v24.8H964V18.1
				C964,18.1,989.9,18.1,989.9,18.1z"/>
			<path class="st0" d="M1116.4,59l20-40.9h21.6l-31.5,57.8v32.9h-20.1V75.9l-31.5-57.8h21.7L1116.4,59z"/>
			<path class="st0" d="M1241.5,86.3l21.8-68.1h22.1l-33.5,90.6h-20.6l-33.3-90.6h22L1241.5,86.3z"/>
			<path class="st0" d="M1318,108.8h-19.8V18.1h19.8V108.8z"/>
			<path class="st0" d="M1374.7,75.6h-15.8v33.1h-19.8V18.1h35.7c11.3,0,20.1,2.4,26.3,7.2s9.2,11.5,9.2,20.3
				c0,6.2-1.4,11.3-4.3,15.4c-2.9,4.1-7.1,7.4-12.9,9.8l20.8,37v0.8h-21.2L1374.7,75.6z M1358.9,60.5h16c5,0,8.8-1.2,11.6-3.6
				c2.7-2.4,4.1-5.7,4.1-9.8c0-4.2-1.3-7.6-3.8-10.1c-2.6-2.5-6.5-3.7-11.9-3.7h-15.9L1358.9,60.5L1358.9,60.5z"/>
			<path class="st0" d="M1497.1,33.3h-29.4v75.5h-19.8V33.3h-29.1V18.1h78.2L1497.1,33.3L1497.1,33.3z"/>
			<path class="st0" d="M1583.8,18.1v59.7c0,9.9-3.3,17.8-9.8,23.5c-6.6,5.7-15.5,8.6-27,8.6c-11.2,0-20.1-2.8-26.7-8.4
				c-6.6-5.6-10-13.3-10.1-23.1V18.1h19.8V78c0,5.9,1.5,10.3,4.5,13c3,2.7,7.2,4.1,12.5,4.1c11.1,0,16.8-5.5,17-16.6V18.1H1583.8z"
				/>
			<path class="st0" d="M1655.6,90.1h-34.7l-6.6,18.7h-21l35.7-90.6h18.3l36,90.6h-21L1655.6,90.1z M1626.1,75h24l-12-33.9
				L1626.1,75z"/>
			<path class="st0" d="M1714.7,93.8h42v15h-61.9V18.1h19.8V93.8z"/>
		</g>
	</g>
</g>
</svg>
